<svg width="225" height="239" viewBox="0 0 225 239" fill="none" xmlns="http://www.w3.org/2000/svg">
<g filter="url(#filter0_d_1_768)">
<path d="M112.5 22C72.8625 22 37 52.6004 37 99.9266C37 130.147 60.1219 165.689 106.271 206.648C109.857 209.784 115.237 209.784 118.823 206.648C164.878 165.689 188 130.147 188 99.9266C188 52.6004 152.137 22 112.5 22Z" fill="white" shape-rendering="crispEdges"/>
<path d="M112.5 19C153.721 19 191 50.8713 191 99.9268C191 115.807 184.929 132.814 173.199 150.894C161.465 168.979 143.962 188.306 120.816 208.89L120.808 208.898L120.798 208.906C116.081 213.031 109.014 213.031 104.297 208.906L104.288 208.899L104.28 208.892C81.0875 188.307 63.5596 168.981 51.8135 150.895C40.0713 132.814 34.0001 115.807 34 99.9268C34 50.8713 71.2791 19 112.5 19Z" stroke="white" stroke-opacity="0.13" stroke-width="6" shape-rendering="crispEdges"/>
</g>
<g clip-path="url(#clip0_1_768)">
<path d="M53.4682 101.505C53.1779 101.946 53.5602 102.103 54.3162 102.078C55.9144 102.043 59.3379 101.105 61.5024 100.244C61.1 100.619 58.191 103.236 54.8192 103.84C52.0799 104.332 54.0949 106.203 54.0949 106.203C54.7445 107.155 55.9 107.407 56.9923 107.393C58.1996 107.39 59.3322 107.053 59.6426 106.952C58.1996 108.901 57.7225 110.683 58.9355 110.583C59.5449 110.568 60.6314 110.028 62.3015 108.703C61.5053 110.568 62.0831 111.739 63.1006 111.801C63.8537 111.884 64.8684 111.335 65.7451 109.985C65.7883 111.269 66.4408 112.128 67.3347 112.145C67.855 112.182 68.4644 111.922 69.0824 111.287C69.7867 112.268 70.3932 112.597 70.9048 112.56C70.9796 112.56 71.0543 112.554 71.1233 112.537C70.81 114.465 70.4075 115.944 69.8269 117.137C69.5969 116.513 69.2405 115.852 68.6742 115.269C68.6742 115.269 69.0939 116.765 69.2664 118.11C69.2463 118.141 69.2261 118.172 69.206 118.201C68.9761 117.346 68.3552 116.17 66.7282 115.252C66.7282 115.252 68.6944 116.716 68.4299 119.225L68.3465 119.245C68.0965 118.81 67.1163 117.391 64.9978 117.323C64.9978 117.323 67.6624 118.501 67.2686 120.538C67.2686 120.538 69.6458 120.879 71.9483 120.195C73.1785 119.966 74.3283 119.689 74.8141 119.574C76.2801 119.228 83.1185 121.033 80.4567 119.62C78.022 118.324 77.5219 114.674 77.2718 110.214C78.8901 111.604 80.5775 112.311 81.5778 112.262C82.6787 112.245 83.0121 111.369 81.6583 109.559C82.7017 110.217 84.1389 111.204 85.1163 111.232C85.7199 111.275 86.1597 110.975 86.2517 110.048C87.7665 111.109 88.8272 111.664 89.3619 111.613C90.3277 111.613 89.8304 109.936 87.5078 106.12C89.7413 107.599 91.6356 108.022 93.0671 107.934C95.5391 107.813 96.6746 106.189 95.8783 105.834C93.5759 105.299 90.23 103.805 88.2667 101.342C89.2555 102.223 90.3708 102.781 91.0291 102.787C92.0524 102.853 92.1041 101.714 89.2699 98.616C91.0061 100.187 92.6302 100.696 93.8604 100.667C93.9582 100.667 94.0473 100.656 94.1393 100.65C94.1623 100.65 94.1881 100.647 94.2111 100.644C95.4299 100.527 96.1974 99.5715 96.1744 99.5858C96.505 99.0222 95.9531 98.7132 95.4615 98.5301C92.656 97.197 90.2616 94.8054 88.4564 92.5282L88.5398 92.5482C87.5078 91.2465 86.6627 89.982 86.0447 88.975C87.3382 89.9305 88.3616 90.3311 88.9278 90.3511C89.6321 90.414 89.7241 89.9534 88.9106 89.264C86.8812 87.639 85.2255 84.3949 84.2137 82.0175C84.6247 82.2893 84.9697 82.4352 85.1968 82.418C85.8435 82.4552 85.7228 81.4139 83.9578 78.6732C85.2887 79.8719 86.4385 80.4441 87.045 80.3954C87.5538 80.3897 87.7349 79.9978 87.3957 79.2254C87.1686 78.7047 86.795 78.2641 86.3782 77.8751C81.9773 73.7841 81.4398 69.0609 81.4111 68.7777C82.0607 69.5415 82.8224 70.0965 82.9489 70.1337C83.2651 70.251 83.1386 69.6588 82.1929 68.0167C83.5497 69.0695 84.6621 69.5301 85.0588 69.4729C85.4497 69.4671 85.352 69.0952 84.4638 68.4029C83.8342 67.9423 82.6155 66.592 82.627 66.6378C80.1492 63.5882 77.8611 58.5617 76.8751 56.2445C76.8953 56.2416 76.9182 56.2301 76.9384 56.233C76.5992 55.4692 76.4123 55 76.4123 55C76.4066 55.0343 76.3951 55.0715 76.3865 55.1059C76.3606 55.0372 76.3433 55 76.3433 55C76.2744 55.3233 74.0898 65.1273 69.1715 68.9179C67.9987 69.8219 68.2804 70.3368 69.0882 70.2853C69.6803 70.271 70.5973 69.9363 71.451 69.2297C71.0141 70.1938 71.1664 70.168 70.8703 71.0949C69.5021 74.4793 67.4008 78.5645 65.9866 79.52C65.0926 80.1265 65.0639 80.5528 65.5985 80.57C65.6187 80.57 65.6474 80.57 65.6675 80.57C65.6991 80.57 65.7279 80.57 65.7653 80.57C66.2223 80.5442 67.0013 80.2667 67.9786 79.6287C67.4095 81.4511 65.84 85.5735 62.7097 88.0023C60.6544 89.593 61.2753 90.2366 62.6091 90.1794C62.7672 90.1766 62.9339 90.1594 63.1121 90.1365C62.1779 92.2678 59.8553 95.9897 54.7273 97.1427C52.9709 97.5918 53.9713 99.0966 56.2766 98.965C56.7538 98.945 57.2884 98.8477 57.8662 98.6617C57.1246 98.985 54.2673 100.29 53.4682 101.508V101.505Z" fill="#447C2A"/>
<path d="M172.414 101.505C172.705 101.946 172.322 102.103 171.566 102.078C169.968 102.043 166.545 101.105 164.38 100.244C164.783 100.619 167.691 103.236 171.063 103.84C173.803 104.332 171.788 106.203 171.788 106.203C171.138 107.155 169.982 107.407 168.89 107.393C167.683 107.39 166.55 107.053 166.24 106.952C167.683 108.901 168.16 110.683 166.947 110.583C166.338 110.568 165.251 110.028 163.581 108.703C164.377 110.568 163.799 111.739 162.782 111.801C162.029 111.884 161.014 111.335 160.137 109.985C160.094 111.269 159.442 112.128 158.548 112.145C158.027 112.182 157.418 111.922 156.8 111.287C156.096 112.268 155.489 112.597 154.978 112.56C154.903 112.56 154.828 112.554 154.759 112.537C155.073 114.465 155.475 115.944 156.056 117.137C156.286 116.513 156.642 115.852 157.208 115.269C157.208 115.269 156.789 116.765 156.616 118.11C156.636 118.141 156.656 118.172 156.676 118.201C156.906 117.346 157.527 116.17 159.154 115.252C159.154 115.252 157.188 116.716 157.453 119.225L157.536 119.245C157.786 118.81 158.766 117.391 160.885 117.323C160.885 117.323 158.22 118.501 158.614 120.538C158.614 120.538 156.237 120.879 153.934 120.195C152.704 119.966 151.554 119.689 151.068 119.574C149.602 119.228 142.764 121.033 145.426 119.62C147.86 118.324 148.361 114.674 148.611 110.214C146.992 111.604 145.305 112.311 144.305 112.262C143.204 112.245 142.87 111.369 144.224 109.559C143.181 110.217 141.744 111.204 140.766 111.232C140.163 111.275 139.723 110.975 139.631 110.048C138.116 111.109 137.055 111.664 136.521 111.613C135.555 111.613 136.052 109.936 138.375 106.12C136.141 107.599 134.247 108.022 132.815 107.934C130.343 107.813 129.208 106.189 130.004 105.834C132.307 105.299 135.653 103.805 137.616 101.342C136.627 102.223 135.512 102.781 134.853 102.787C133.83 102.853 133.778 101.714 136.613 98.616C134.876 100.187 133.252 100.696 132.022 100.667C131.924 100.667 131.835 100.656 131.743 100.65C131.72 100.65 131.694 100.647 131.671 100.644C130.453 100.527 129.685 99.5715 129.708 99.5858C129.378 99.0222 129.929 98.7132 130.421 98.5301C133.226 97.197 135.621 94.8054 137.426 92.5282L137.343 92.5482C138.375 91.2465 139.22 89.982 139.838 88.975C138.544 89.9305 137.521 90.3311 136.955 90.3511C136.25 90.414 136.158 89.9534 136.972 89.264C139.001 87.639 140.657 84.3949 141.669 82.0175C141.258 82.2893 140.913 82.4352 140.686 82.418C140.039 82.4552 140.16 81.4139 141.925 78.6732C140.594 79.8719 139.444 80.4441 138.837 80.3954C138.329 80.3897 138.148 79.9978 138.487 79.2254C138.714 78.7047 139.088 78.2641 139.504 77.8751C143.905 73.7841 144.443 69.0609 144.471 68.7777C143.822 69.5415 143.06 70.0965 142.934 70.1337C142.617 70.251 142.744 69.6588 143.69 68.0167C142.333 69.0695 141.22 69.5301 140.824 69.4729C140.433 69.4671 140.531 69.0952 141.419 68.4029C142.048 67.9423 143.267 66.592 143.256 66.6378C145.733 63.5882 148.021 58.5617 149.007 56.2445C148.987 56.2416 148.964 56.2301 148.944 56.233C149.269 55.472 149.453 55 149.453 55C149.459 55.0343 149.47 55.0715 149.479 55.1059C149.522 55.0372 149.539 55 149.539 55C149.608 55.3233 151.793 65.1273 156.711 68.9179C157.884 69.8219 157.602 70.3368 156.794 70.2853C156.202 70.271 155.285 69.9363 154.432 69.2297C154.868 70.1938 154.716 70.168 155.012 71.0949C156.38 74.4793 158.482 78.5645 159.896 79.52C160.79 80.1265 160.819 80.5528 160.284 80.57C160.264 80.57 160.235 80.57 160.215 80.57C160.183 80.57 160.155 80.57 160.117 80.57C159.66 80.5442 158.881 80.2667 157.904 79.6287C158.473 81.4511 160.042 85.5735 163.173 88.0023C165.228 89.593 164.607 90.2366 163.273 90.1794C163.115 90.1766 162.949 90.1594 162.77 90.1365C163.705 92.2678 166.027 95.9897 171.155 97.1427C172.912 97.5918 171.911 99.0966 169.606 98.965C169.129 98.945 168.594 98.8477 168.016 98.6617C168.758 98.985 171.615 100.29 172.414 101.508V101.505Z" fill="#447C2A"/>
<path d="M145.618 92.6597L111.728 71.6785L63.5088 107.33H67.8033L111.734 74.9398L144.42 95.1858L145.618 92.6597Z" fill="#447C2A"/>
<path d="M111.596 89.5044H107.96V95.9241H111.596V89.5044Z" fill="#447C2A"/>
<path d="M111.596 97.5891H107.96V104.009H111.596V97.5891Z" fill="#447C2A"/>
<path d="M116.905 89.5044H113.269V95.9241H116.905V89.5044Z" fill="#447C2A"/>
<path d="M116.905 97.5891H113.269V104.009H116.905V97.5891Z" fill="#447C2A"/>
<path d="M145.348 98.1038L144.828 98.9335L111.766 78.4043L72.6468 107.33H71.0342L111.708 77.217L145.348 98.1038Z" fill="#447C2A"/>
</g>
<defs>
<filter id="filter0_d_1_768" x="11" y="0" width="203" height="239" filterUnits="userSpaceOnUse" color-interpolation-filters="sRGB">
<feFlood flood-opacity="0" result="BackgroundImageFix"/>
<feColorMatrix in="SourceAlpha" type="matrix" values="0 0 0 0 0 0 0 0 0 0 0 0 0 0 0 0 0 0 127 0" result="hardAlpha"/>
<feOffset dy="4"/>
<feGaussianBlur stdDeviation="10"/>
<feComposite in2="hardAlpha" operator="out"/>
<feColorMatrix type="matrix" values="0 0 0 0 0 0 0 0 0 0 0 0 0 0 0 0 0 0 0.1 0"/>
<feBlend mode="normal" in2="BackgroundImageFix" result="effect1_dropShadow_1_768"/>
<feBlend mode="normal" in="SourceGraphic" in2="effect1_dropShadow_1_768" result="shape"/>
</filter>
<clipPath id="clip0_1_768">
<rect width="225" height="118" fill="white" transform="translate(0 55)"/>
</clipPath>
</defs>
</svg>
